<?xml version="1.0" standalone="no"?>
<!DOCTYPE svg PUBLIC "-//W3C//DTD SVG 1.0//EN" "http://www.w3.org/TR/2001/REC-SVG-20010904/DTD/svg10.dtd">
<svg xmlns:svg="http://www.w3.org/2000/svg" xmlns="http://www.w3.org/2000/svg" width="687" height="600" viewBox="0 0 687 600">
<title>Hebrew Chai symbol of Judaism (Chet-Yud or Het-Yod).  By AnonMoos (public domain)</title>
<rect x="0" y="0" width="687" height="600" fill="rgb(255,255,255)" stroke="none"/>
<path transform="translate(21,574) scale(1.04,-1.04)"  stroke="none" fill="rgb(0,0,0)" d="M190,342
c0,36,-5,64,-15,89
c-16,34,-50,44,-103,44
c-12,0,-23,8,-28,16
c-3,5,-4,7,-3,12
c1,3,4,7,6,10
c3,4,4,7,-1,10
c-5,2,-16,-4,-20,-8
c-9,-11,-16,-31,-19,-44
c-2,-13,-2,-40,1,-54
c3,-13,6,-31,14,-47
c7,-14,25,-32,52,-32
h30
c22,0,37,-1,47,-12
c7,-6,10,-25,11,-36
c1,-12,2,-26,-4,-40
c-2,-4,-4,-7,-6,-12
c-2,-4,-5,-8,-5,-11
c0,-4,1,-7,5,-9
c4,-2,11,0,13,2
c4,3,6,5,8,8
c8,13,16,72,17,114Z
M610,401
c0,19,-3,35,-9,49
c-2,6,-7,11,-16,16
c-8,5,-16,9,-24,9
h-242
c-12,0,-23,8,-28,16
c-3,5,-4,7,-3,12
c1,3,4,7,6,10
c3,4,4,7,-1,10
c-5,2,-16,-4,-20,-8
c-10,-11,-18,-25,-25,-43
c-11,-28,-9,-49,-9,-76
c0,-12,5,-24,17,-37
c9,-12,20,-20,34,-26
l-15,-26
l-10,-22
c-2,-4,-3,-12,-5,-25
l-2,-218
l-6,-13
c-3,-6,-4,-11,-5,-15
c0,-3,1,-9,5,-10
c10,-2,18,1,18,1
l30,44
c12,14,18,34,18,61
l-1,27
l-4,28
l-2,21
l-4,38
c-2,15,-3,29,-4,42
c0,32,10,56,32,72
h209
c0,-20,0,-41,-1,-64
c0,-22,0,-45,-1,-69
l-2,-194
l2,-4
l6,-2
l6,-1
c30,37,47,72,51,105
c0,34,-3,67,-9,99
c-5,32,-14,73,-28,125
c2,5,6,9,14,13
c8,4,14,8,18,12
c6,10,9,24,10,43Z"/>
</svg>
