<?xml version="1.0" encoding="UTF-8" standalone="no"?>
<svg viewBox="0 0 504 504" xmlns="http://www.w3.org/2000/svg">
<path d="m62.69489,460.19522-14.73722-14.76184 3.27117-3.09488c9.74753-9.2222 28.80237-20.05844 44.38207-25.23951 18.67579-6.21069 21.40394-6.50025 62.3891-6.62194 35.19536-.1045 37.99166-.24505 45.5-2.28699 11.23315-3.05492 21.43148-8.476 29.01099-15.42125 7.70342-7.05877 8.16456-8.76881 2.36465-8.76881-5.97459,0-27.9074-4.62024-38.37564-8.08399-12.13958-4.01677-33.5-14.50846-33.5-16.45435-1e-005-.83314 3.15-14.09088 7-29.46166s6.98848-28.29633 6.97441-28.72344-3.21611-2.80156-7.11563-5.27656c-30.93138-19.63192-42.45574-61.8196-26.39412-96.62189 9.65544-20.92142 23.8926-34.89758 64.1352-62.95948 19.58824-13.65922 36.65744-26.78681 41.22931-31.70863l2.32918-2.50745-4.10405-.69338c-5.80531-.9808-12.9689-6.15273-16.52516-11.93075-2.67992-4.35421-3.02914-5.80428-3.02914-12.57842s.34921-8.22421 3.02914-12.57842c10.04948-16.32783 32.89225-16.32783 42.94172,0 2.67994,4.35421 3.02914,5.80428 3.02914,12.57842s-.34921,8.22421-3.02914,12.57842c-3.55625,5.77802-10.71985,10.94995-16.52515,11.93075l-4.10405.69338 2.32917,2.50745c4.57187,4.92182 21.64107,18.0494 41.22931,31.70863 40.2426,28.06191 54.47975,42.03806 64.13515,62.95948 16.06169,34.80229 4.5373,76.98997-26.39407,96.62189-3.89953,2.475-7.10156,4.84945-7.11563,5.27656s3.12441,13.35266 6.97441,28.72344 7,28.62853 7,29.46166c1e-005,1.94588-21.36043,12.43759-33.5,16.45435-10.46823,3.46374-32.40106,8.08399-38.37564,8.08399-5.7999,0-5.33877,1.71003 2.36465,8.76881 7.57952,6.94526 17.77783,12.36633 29.01099,15.42125 7.50835,2.04194 10.30463,2.18249 45.5,2.28699 31.9832.09496 38.67689.3728 45.49999,1.88859 19.4909,4.33003 39.1876,13.05251 53.3753,23.63666 12.97239,9.67756 13.3283,7.32283-3.6721,24.29488l-14.7339,14.70929-5.93689-4.44058c-15.12291-11.31149-34.37971-19.21694-53.53241-21.97659-5.775-.83209-21.97499-1.97067-35.99999-2.53014-14.02499-.55949-29.52044-1.71843-34.43431-2.57545-12.86668-2.24406-26.58161-7.08412-35.83797-12.64736-4.42581-2.66-8.35329-4.83635-8.72772-4.83635s-4.3019,2.17636-8.72772,4.83635c-9.25636,5.56323-22.97129,10.40329-35.83797,12.64736-4.91388.85703-20.40931,2.01597-34.43431,2.57545-36.42761,1.45313-51.08425,4.00967-68.75148,11.99218-5.29659,2.39314-17.31034,9.85744-24.78247,15.39764-1.93273,1.43301-2.76731.7735-16.77117-13.25377v1e-005z"/>
<path d="m260,226.5v-12.5h12 12v-7.5-7.5h-12-12v-12.5-12.5h-7.49998-7.5v12.5 12.5h-12.5-12.5v7.5 7.5h12.5 12.5v12.5 12.5h7.5 7.49998v-12.5z" fill="#fff"/>
<path d="m205.27051,302.48074c4.82377-1.98349 13.14877-4.77489 18.5-6.20312 8.81056-2.35152 11.47681-2.59678 28.2295-2.59678s19.41894.24526 28.2295,2.59678c7.75604,2.07007 21.01104,6.88866 28.28132,10.28112 .85933.40098 7.48918-10.15018 7.48918-11.91876 1e-005-1.03002-9.07569-5.26367-18.1195-8.45245-16.43483-5.79478-27.56284-7.65032-45.8805-7.65032s-29.44568,1.85554-45.8805,7.65032c-9.04381,3.18878-18.1195,7.42243-18.1195,8.45245-1e-005,1.76858 6.62985,12.31975 7.48918,11.91876 .55594-.25942 4.95754-2.09452 9.78132-4.078z" fill="#fff"/>
<path d="m185.31982,363.13092c17.64854-12.11307 44.18274-20.11913 66.68019-20.11913s49.03165,8.00606 66.68018,20.11914c2.2991,1.578 4.38253,2.86907 4.62985,2.86907 .50659,0 8.68997-10.67859 8.68997-11.33963 1e-005-1.07543-13.51624-9.03955-23-13.5522-23.92006-11.38188-50.02272-15.36821-75.68265-11.55808-14.20926,2.10988-25.82387,5.61332-38.31735,11.55808-9.48377,4.51264-23,12.47677-23,13.5522-1e-005,.66104 8.18339,11.33963 8.68997,11.33963 .24731,0 2.33076-1.29108 4.62985-2.86907l-1e-005-1e-005z" fill="#fff"/>
</svg>
