<?xml version="1.0" encoding="UTF-8" standalone="no"?>
<svg viewBox="0 0 504 504" xmlns="http://www.w3.org/2000/svg">
<path d="m57.35181,455.07425c-9.546-9.4875-17.60658-18.2432-17.91241-19.4571-1.0662-4.23201 1.20574-7.6998 9.35856-14.2845 15.86131-12.81067 33.96384-21.92268 53.78068-27.07083 17.31636-4.49857 25.90945-5.19263 55-4.44226 34.27403.88409 48.69439-1.00482 59.90047-7.84628l3.90047-2.3813-7.90047-1.71887c-13.38834-2.91285-31.39993-9.35244-44.44317-15.88955-17.97503-9.00885-17.34898-6.1891-8.86328-39.92068 3.76875-14.98123 6.85465-27.68861 6.85757-28.23861s-2.48907-2.78724-5.53773-4.97164c-14.78957-10.59697-26.22112-27.83693-31.62362-47.69173-1.82596-6.71066-2.25219-10.77462-2.1853-20.83663 .09958-14.98186 2.20943-23.91331 8.89625-37.65983 10.54217-21.67226 24.6972-35.68729 63.99881-63.3659 13.42058-9.45161 24.47627-17.57419 32.24782-23.69243 1.33929-1.05436.86291-1.86113-3.54287-6-7.28931-6.84773-10.68991-14.57265-10.6984-24.30287-.01173-13.44493 7.41109-24.61785 20.49345-30.84702 7.78595-3.7073 18.21402-3.7073 26,0 8.15082,3.88102 13.44958,9.00455 17.20799,16.639 6.53384,13.27206 3.68187,28.0882-7.41296,38.51089-4.40575,4.13887-4.88214,4.94564-3.54287,6 7.77155,6.11824 18.82724,14.24082 32.24784,23.69243 39.3016,27.67861 53.45662,41.69364 63.9988,63.3659 6.68681,13.74652 8.79666,22.67796 8.89626,37.65983 .06687,10.06202-.35935,14.12597-2.18531,20.83663-5.40249,19.8548-16.83403,37.09476-31.62363,47.69173-3.04865,2.1844-5.54062,4.42164-5.53771,4.97164s3.08882,13.25737 6.85757,28.23861c8.4857,33.73159 9.11174,30.91182-8.86328,39.92068-13.04326,6.53712-31.05483,12.9767-44.44318,15.88955l-7.90045,1.71887 3.90045,2.38129c11.20608,6.84147 25.62642,8.73037 59.90048,7.84629 29.09052-.75036 37.68363-.05632 55,4.44226 19.94982,5.18276 37.63584,14.11865 53.98602,27.27683 6.78501,5.46031 8.54576,7.4381 9.05944,10.1763 .35069,1.86931.18027,4.2336-.37869,5.254s-8.61762,9.3928-17.90814,18.6053c-11.79395,11.6949-17.57061,16.75-19.14097,16.75-2.87741,0-4.66793-.9844-12.34557-6.7873-7.86826-5.94701-20.05368-12.3173-29.78611-15.5715-11.03019-3.6881-25.41947-5.4425-53.98598-6.582-35.80721-1.4284-51.48678-4.5691-69.7031-13.9618l-9.2969-4.79369-9.29692,4.7937c-18.21632,9.39269-33.89588,12.53339-69.70308,13.96179-28.56654,1.1395-42.9558,2.8939-53.98599,6.582-9.73243,3.2542-21.91785,9.6245-29.78612,15.5715-7.67853,5.80359-9.46806,6.7873-12.34738,6.7873-1.57684,0-7.44884-5.166-19.60734-17.25z"/>
<path d="m191.81297,274.8912c37.33243-11.70609 74.27578-12.53951 112.0098-2.52686 6.18428,1.64098 13.72718,3.91264 16.76201,5.04812l5.51791,2.0645 4.80551-3.52759c26.65484-19.56645 35.59324-55.44553 21.21387-85.1533-9.39473-19.40948-23.86209-33.07901-66.64715-62.9718-7.08486-4.95-17.49738-12.69526-23.13892-17.21168l-10.25736-8.21168-10.25737,8.21168c-5.64154,4.51642-16.05405,12.26168-23.13892,17.21168-42.78505,29.89279-57.25241,43.56232-66.64714,62.9718-12.13582,25.07256-7.911,54.89443 10.71026,75.60068 5.50955,6.12645 14.58022,13.06977 16.33317,12.50253 .82499-.26698 6.55545-2.0706 12.73433-4.00808z" fill="#fff"/>
<path d="m184.81024,328.37048c9.39394-3.82807 26.29689-8.57163 38.2684-10.73945 13.20834-2.39179 44.80091-2.39081 58,.0018 12.45291,2.25733 26.38478,6.14598 37.32908,10.41924 4.856,1.89606 9.03128,3.24518 9.2784,2.99806s-1.47598-8.20791-3.82909-17.69063c-4.95139-19.95336-3.47986-18.27254-20.0775-22.93308-17.92979-5.03459-29.98799-6.56597-51.70089-6.56597s-33.77112,1.53138-51.70089,6.56597c-16.53026,4.64161-15.19557,3.18319-19.72033,21.54847-2.14773,8.71717-4.10903,16.63688-4.35848,17.59938-.60456,2.33256.06599,2.23774 8.51131-1.20378l-1e-005-1e-005z" fill="#fff"/>
<path d="m285.69107,360.88181c11.98111-2.48939 26.66659-7.13265 33.32753-10.5375l3.43996-1.7584-4.74158-2.09742c-8.41345-3.72167-25.87194-8.92562-36.13834-10.77196-13.96605-2.51169-45.03397-2.5117-59,0-10.26643,1.84635-27.72489,7.05029-36.13836,10.77197l-4.74156,2.09741 3.43995,1.75839c9.84408,5.03198 31.5765,10.96582 47.58618,12.99297 12.59487,1.59477 39.46913.34891 52.96623-2.45547l-1e-005,1e-005z" fill="#fff"/>
<path d="m84.22815,447.68015c7.90076-5.381 24.14041-12.895 34.0395-15.7498 13.1673-3.79741 26.76916-5.4265 54.81099-6.5648 14.02498-.56919 28.425-1.5025 32-2.0738 15.15643-2.4222 28.82026-7.6472 39.92242-15.26598 5.56713-3.82039 8.58803-3.8204 14.15516,0 11.10216,7.61879 24.76598,12.84378 39.92242,15.26598 3.57499.5713 17.97499,1.5046 32,2.0738 28.04182,1.13831 41.64369,2.7674 54.81098,6.5648 9.93812,2.86609 26.14512,10.3735 34.12483,15.8072l5.43584,3.70151 8.92209-8.92212 8.92211-8.92209-8.47445-5.6387c-13.41896-8.9287-26.8021-14.57838-43.2414-18.25458-6.84965-1.5317-13.3923-1.8044-45.5-1.8965-37.25771-.10691-37.56351-.1247-47.32694-2.7561-5.40483-1.45671-12.32441-3.7919-15.3769-5.1894-6.41843-2.93844-16.48296-9.9449-20.73325-14.43352-2.78494-2.94112-3.33211-3.10178-10.56291-3.10178s-7.77796.16067-10.56291,3.10178c-4.25029,4.48861-14.31481,11.49507-20.73326,14.43352-3.05249,1.39751-9.97208,3.7327-15.37689,5.1894-9.76345,2.63139-10.06926,2.6492-47.32694,2.7561-32.10772.09209-38.65036.3648-45.5,1.8965-16.30381,3.6459-29.30074,9.10758-43.14169,18.12958l-8.66337,5.64709 8.88168,8.92301c4.88493,4.9076 8.95834,8.923 9.05204,8.923s2.57808-1.6398 5.52085-3.6441z" fill="#fff"/>
<path d="m260.15695,79.05047c10.63999-7.17029 10.63999-20.28211 0-27.4524-9.81276-6.61282-24.07831,1.51947-24.07831,13.7262s14.26555,20.33902 24.07831,13.7262z" fill="#fff"/>
<path d="m246.99197,234.04247c-3.24601-2.49222-3.91333-5.57443-3.91333-18.07498v-12.48826l-13.589-.32748c-13.47636-.32477-13.60899-.35074-16-3.13324-3.08085-3.5853-3.08085-7.80318 0-11.38848 2.3897-2.78099 2.53032-2.80864 15.92393-3.13183l13.51294-.32607 .32605-13.51294c.3232-13.3936.35085-13.53422 3.13183-15.92392 3.58531-3.08086 7.80319-3.08085 11.38849,0 2.78096,2.38969 2.80864,2.53032 3.13182,15.92393l.32607,13.51293 13.51294.32607c13.39361.32319 13.53423.35085 15.92393,3.13183 3.08085,3.58529 3.08085,7.80318 0,11.38848-2.39101,2.7825-2.52364,2.80847-16,3.13324l-13.589.32748v12.48825c0,12.50056-.66732,15.58277-3.91334,18.07499-2.04584,1.57072-8.12752,1.57072-10.17332,0h-1e-005z"/>
</svg>
