<?xml version="1.0" encoding="UTF-8" standalone="no"?>
<svg viewBox="0 0 64 64" xmlns="http://www.w3.org/2000/svg">
  <path id="svg_1" stroke-width="2" stroke="#000" fill="#000000" d="m14.89117,56.08699c-3.43046,-8.18063 1.76821,-17.01123 8.37655,-21.386002l1.01956,-0.55426l-0.604769,-0.561539c-4.41433,-5.30864 -2.99382,-12.31781 3.04854,-15.43763c-1.109421,-1.826321 -1.466751,-3.68021 -1.05689,-5.80475c0.86223,-3.14055 3.513531,-4.28774 6.37022,-4.5397c2.932468,0.11981 5.212261,1.63402 6.228401,4.5397c0.647598,2.12841 -0.14233,3.95978 -1.0569,5.80475c6.69965,3.14937 6.69717,9.86507 3.048531,15.43763l-0.604763,0.561539c6.982952,3.833122 13.20406,13.725903 9.361771,21.946541c-0.359039,0.142212 -33.791039,0.136059 -34.13025,-0.006279z"/>
</svg>