<?xml version="1.0" encoding="UTF-8" standalone="no"?>
<svg viewBox="0 0 55.383839 75.910744" xmlns="http://www.w3.org/2000/svg">
<g transform="translate(-919.954,-80.40986)">
<path d="m920.08308,156.32061c-.08604-1.0328-.12908-3.05537-.12908-6.0677 0-10.84439 3.35661-18.89162 10.06978-24.14167 1.97954-1.63527 4.3893-3.14143 7.22961-4.5185-3.3566-1.0328-5.63736-3.57176-6.8423-7.61689-.34427-1.291-.51639-2.62503-.51639-4.0021 0-5.76647 2.96929-9.85462 8.90788-12.2645-1.54931-2.58199-2.3239-5.03489-2.32379-7.35869-.00011-3.87299 1.89336-6.75622 5.6804-8.64969 1.72121-.86067 3.57165-1.29101 5.55129-1.29101 4.30323,0 7.48768,1.67831 9.55339,5.03491 .94662,1.46313 1.42,3.0984 1.4201,4.90579-.0001,2.49594-.73167,4.94883-2.19471,7.35869 3.18438,1.291 5.46514,3.01234 6.8423,5.16399 1.37696,2.32381 2.06548,4.69063 2.06562,7.10051-.00014,4.47545-1.54933,7.87509-4.64761,10.19888-.77471.68854-1.63538,1.16191-2.58201,1.42011 7.91802,4.04513 13.039,9.33823 15.3629,15.87929 1.20482,3.61479 1.80728,7.87508 1.80738,12.78088-.0001,3.01233-.04314,5.0349-.12908,6.0677h-55.12568"/>
</g>
</svg>
