<?xml version="1.0" encoding="UTF-8" standalone="no"?>
<svg viewBox="0 0 55.383869 75.910744" xmlns="http://www.w3.org/2000/svg">
<g transform="translate(-921.42487,-223.23889)">
<path d="m972.16114,293.98563c-.0001-9.03698-2.453-15.79321-7.3587-20.26867-1.63536-1.54921-3.65793-3.01234-6.06768-4.3894-3.3567-1.97953-5.035-3.78694-5.0349-5.4222-.0001-.86067.86055-1.80739 2.58199-2.84019 2.66796-1.46314 4.26019-3.18448 4.77671-5.16402 .17202-.77458.25809-1.7213.25819-2.84018-.0001-3.95906-2.02266-7.05746-6.0677-9.29519l-2.32379-1.6783c-.43045-.43032-.64561-.9037-.6455-1.42011-.00011-1.46312.51628-2.92626 1.54919-4.38939 .68843-.94672 1.0327-2.0656 1.0328-3.3566-.0001-2.23771-1.20503-3.87298-3.61479-4.90579-.77471-.25821-1.5493-.3873-2.3238-.3873-2.40998,0-4.1313,1.07584-5.164,3.22749-.34436.68854-.51651,1.37708-.51641,2.0656-.0001.77461.55935,2.23773 1.67831,4.38941 .68843,1.20492.98966,2.3238.90372,3.35658-.00014,1.0328-.9899,2.0656-2.96931,3.09841-3.95918,2.32379-5.93872,5.4222-5.93859,9.29519-.00013,3.3566 1.67817,6.02467 5.03488,8.0042 1.63516,1.11885 2.4528,2.0656 2.45291,2.84019-.00011,1.63526-1.67841,3.44267-5.03491,5.4222-6.19678,3.78692-10.15585,8.3915-11.87718,13.81369-.94673,3.01232-1.4201,6.62713-1.4201,10.84438h46.08866m-50.60716,5.164c-.08607-1.0328-.12911-3.01232-.12911-5.93859 0-10.58618 3.09841-18.50431 9.2952-23.75437 2.0656-1.72134 4.69053-3.39964 7.87509-5.0349-3.27053-1.0328-5.46522-3.52875-6.58409-7.48781-.43032-1.291-.6455-2.62503-.6455-4.0021 0-5.76645 2.92626-9.89766 8.7788-12.39357-1.37717-2.49595-2.06571-4.94883-2.0656-7.35871-.00011-3.95906 1.93639-6.88532 5.80948-8.77878 1.63517-.77461 3.39954-1.16191 5.2931-1.16191 4.3893,0 7.61679,1.6783 9.6825,5.0349 .94663,1.46314 1.42,3.0984 1.4201,4.90579-.0001,2.3238-.77471,4.77671-2.3238,7.35871 5.93849,2.40986 8.90779,6.54105 8.9079,12.39357-.00011,4.56155-1.67841,8.0042-5.03491,10.328-.68863.51641-1.46324.90371-2.3238,1.16191 7.7459,3.95906 12.78079,8.99396 15.10471,15.10467 1.46302,3.78694 2.19459,8.34847 2.19469,13.6846-.0001,2.84019-.04314,4.81972-.12911,5.93859h-55.12565"/>
</g>
</svg>
