<?xml version="1.0" encoding="UTF-8" standalone="no"?>
<svg viewBox="0 0 504 504" xmlns="http://www.w3.org/2000/svg">
<path d="m180.91718,473.60516c-20.7038-1.45176-39.94723-5.47248-55.38871-11.57292-9.34194-3.6907-21.00443-9.69978-22.0225-11.34705-.32008-.51789 3.71014-10.80974 8.95604-22.87076s9.53799-22.45431 9.53799-23.0962c0-1.25516-15.85209-37.93083-18.98519-43.92449-1.04026-1.99-9.97571-13.46433-19.85656-25.49848l-17.96517-21.88028-1.18436-9.61972c-.6514-5.29085-5.54474-44.49438-10.87411-87.11896l-9.68975-77.49924-5.69621-.71151c-16.44526-2.05424-26.26735-16.68013-21.28178-31.69028 2.11893-6.3795 5.35813-10.32431 11.38853-13.86935 3.9436-2.3183 5.77656-2.73039 12.1446-2.73039s8.201.41209 12.1446,2.73039c6.0304,3.54504 9.2696,7.48985 11.38853,13.86935 3.61831,10.89373-1.09307,23.07758-11.0865,28.67019-1.15587.64685 6.24168,16.63227 36.68375,79.27016 20.97237,43.15295 38.19226,78.54202 38.2664,78.64238 .20523.27776 10.70156-187.79951 10.64905-190.81375-.03926-2.25333-.66355-2.78683-4.34632-3.71416-5.97061-1.50342-12.04872-6.19058-15.38265-11.8624-2.41979-4.11665-2.81686-5.86043-2.81686-12.37058 0-6.68684.35637-8.15743 3.02914-12.5 10.04947-16.32783 32.89225-16.32783 42.94172,0 2.67993,4.35421 3.02914,5.80428 3.02914,12.57842 0,6.76418-.35188,8.23061-3.01828,12.57842-1.80143,2.93738-5.05031,6.26321-8.05848,8.24933l-5.04018,3.32775 31.55494,91.42225c17.35523,50.28224 31.78154,91.42197 32.05848,91.42163 .34706-.00041 33.13481-186.55635 35.38044-201.30786 .0677-.44466-1.56533-1.40445-3.62895-2.13286-5.51649-1.94719-10.33872-6.0061-13.47567-11.34255-2.37097-4.03341-2.7723-5.81316-2.7723-12.29453 0-6.68684.35637-8.15743 3.02914-12.5 10.04947-16.32783 32.89225-16.32783 42.94172,0 2.67277,4.34257 3.02914,5.81316 3.02914,12.5 0,6.48137-.40132,8.26112-2.7723,12.29453-3.13694,5.33645-7.95918,9.39536-13.47567,11.34255-2.06363.72841-3.69665,1.6882-3.62895,2.13286 2.24563,14.75151 35.03338,201.30744 35.38044,201.30786 .27695.00035 14.70325-41.13939 32.05847-91.42163l31.55495-91.42225-5.04019-3.32775c-3.00816-1.98612-6.25704-5.31195-8.05847-8.24933-2.6664-4.34781-3.01828-5.81424-3.01828-12.57842 0-6.77414.34921-8.22421 3.02914-12.57842 10.04947-16.32783 32.89225-16.32783 42.94172,0 2.67277,4.34257 3.02914,5.81316 3.02914,12.5 0,6.51015-.39707,8.25393-2.81686,12.37058-3.33393,5.67182-9.41204,10.35898-15.38265,11.8624-3.68276.92733-4.30707,1.46083-4.34632,3.71416-.0525,3.01424 10.44382,191.09151 10.64905,190.81375 .07415-.10036 17.29403-35.48943 38.2664-78.64238 30.44206-62.63789 37.83962-78.6233 36.68375-79.27016-9.99344-5.59262-14.70481-17.77646-11.0865-28.67019 2.11894-6.3795 5.35813-10.32431 11.38853-13.86935 3.94359-2.3183 5.77656-2.73039 12.1446-2.73039s8.201.41209 12.1446,2.73039c6.03038,3.54504 9.26957,7.48985 11.38857,13.86935 4.9855,15.01015-4.8366,29.63604-21.28182,31.69027l-5.6962.71152-9.68976,77.49924c-5.32937,42.62458-10.22271,81.82811-10.87411,87.11896l-1.18436,9.61972-17.96518,21.88028c-9.88084,12.03415-18.81629,23.50847-19.85655,25.49848-3.13311,5.99367-18.98519,42.66933-18.98519,43.92449 0,.64189 4.2921,11.03519 9.53799,23.0962s9.27612,22.35286 8.95604,22.87076c-2.2943,3.71228-26.34098,13.7871-41.79764,17.51196-22.39482,5.39687-26.87355,5.66261-99.69639,5.91559-37.125.12898-72.26227-.09945-78.08283-.50759l1e-005,1e-005z"/>
<path d="m130.5036,361.67419c17.2924-6.48034 34.43631-11.38498 52.4964-15.01853 26.36559-5.30455 37.84015-6.36264 69-6.36264s42.63441,1.0581 69,6.36264c18.15046,3.65172 35.2157,8.54258 52.80033,15.13242 14.96145,5.60679 17.33155,5.68829 20.13572.69232 2.3123-4.11965.55178-7.81447-5.04803-10.59445-8.28233-4.11168-32.45546-12.05795-49.09406-16.13835-32.98546-8.08926-53.46406-10.55018-87.79396-10.55018-15.57227,0-30.82986.53271-37,1.29183-34.4439,4.23766-64.52416,11.49601-92.74338,22.37889-10.47919,4.04136-13.25662,6.25702-13.25662,10.57535 0,2.66632 4.12469,7.23204 6.53343,7.23204 .89339-1e-005 7.62997-2.25061 14.97017-5.00135v1e-005z" fill="#fff"/>
<path d="m154.00249,404.8801c19.95025-8.58906 40.60761-14.45325 62.99751-17.88366 16.03452-2.45668 53.86949-2.46512 70-.0156 23.33802,3.54404 45.84132,10.18079 68.4091,20.17547 10.27359,4.5499 12.34527,5.15221 14.79008,4.29994 5.50587-1.91935 6.49672-8.17593 1.90649-12.03835-6.91908-5.82202-40.52032-18.31852-62.10567-23.09748-22.62395-5.00891-32.88821-6.08593-58-6.08593s-35.37605,1.07703-58,6.08593c-21.58535,4.77895-55.1866,17.27547-62.10567,23.09748-4.52056,3.80379-3.78874,9.55764 1.49837,11.7807 2.5506,1.07244 3.621,1.06668 6.10034-.03287 1.65383-.73345 8.18308-3.56198 14.50944-6.28563h1e-005z" fill="#fff"/>
<path d="m121.79966,456.28506c5.1927-2.67389 34.80818-12.37104 47.20034-15.45507 14.11784-3.5135 30.30278-6.41133 46.5-8.32559 14.35087-1.69605 58.64913-1.69606 73,0 31.85874,3.76522 61.0282,10.94242 88.71026,21.82734l8.71027,3.42497 4.08844-2.08575c4.56861-2.33074 5.49613-3.84683 4.58189-7.48943-.81496-3.24708-6.17666-5.92199-24.59086-12.26813-78.19725-26.94937-157.80275-26.94938-236,0-18.4142,6.34615-23.77589,9.02104-24.59086,12.26813-.89998,3.58581-.00182,5.13493 4.29037,7.40001 4.61014,2.43287 4.72271,2.44265 8.10015.70351v1e-005z" fill="#fff"/>
</svg>
