<?xml version="1.0" encoding="UTF-8" standalone="no"?>
<svg viewBox="0 0 504 504" xmlns="http://www.w3.org/2000/svg">
<path d="m90,422.5v-18.5h12.5 12.5v-21.3548-21.35479l21-22.36161 21-22.3616v-74.55835-74.55835l-24.44376-18.47525-24.44376-18.47523-.05624-33.75001-.05624-33.75h28.5 28.5v15 15h26 26v-15-15h35 35v15 15h26 26v-15-15h28.5 28.5l-.05206,33.75-.05207,33.75001-24.44641,18.5-24.44644,18.5-.00152,74.69618-.0015,74.6962 20.97107,22.3038 20.97107,22.3038 .02893,21.25 .02893,21.25h12.5 12.5v18.5 18.5h-162-162v-18.5z"/>
<path d="m387.54544,134.54546c1.35001-1.35 2.45456-3.62045 2.45456-5.04545 0-1.42501-1.10455-3.69545-2.45455-5.04545l-2.45454-2.45455h-133.09091-133.09091l-2.45454,2.45455c-1.35,1.35-2.45455,3.62045-2.45455,5.04545 0,1.42499 1.10455,3.69545 2.45455,5.04545l2.45454,2.45456h133.09091 133.09091l2.45453-2.45456z" fill="#fff"/>
<path d="m337.54544,172.54546c1.35001-1.35 2.45456-3.62045 2.45456-5.04545 0-1.42501-1.10455-3.69545-2.45455-5.04545l-2.45454-2.45454h-83.09091-83.09091l-2.45455,2.45454c-1.34999,1.35-2.45454,3.62045-2.45454,5.04545s1.10455,3.69545 2.45455,5.04545l2.45454,2.45456h83.09091 83.09091l2.45453-2.45456z" fill="#fff"/>
<path d="m337.54544,321.54547c1.35001-1.35001 2.45456-3.62046 2.45456-5.04546 0-1.42499-1.10455-3.69545-2.45455-5.04545l-2.45454-2.45456h-83.09091-83.09091l-2.45455,2.45456c-1.34999,1.35-2.45454,3.62045-2.45454,5.04545 0,1.42501 1.10455,3.69545 2.45455,5.04545l2.45454,2.45454h83.09091 83.09091l2.45453-2.45453z" fill="#fff"/>
<path d="m379.08667,367.7182c4.34265-3.33418 4.60302-8.06609.64664-11.75202-2.07511-1.93327-4.21315-1.96617-127.73331-1.96617s-125.6582.03291-127.73331,1.96617c-3.95638,3.68592-3.69601,8.41784.64665,11.75203 2.31065,1.77406 251.86267,1.77405 254.17332,0l1e-005-1e-005z" fill="#fff"/>
<path d="m379.08667,409.7182c4.34265-3.33418 4.60302-8.06609.64664-11.75202-2.07511-1.93327-4.21315-1.96617-127.73331-1.96617s-125.6582.03291-127.73331,1.96617c-3.95638,3.68592-3.69601,8.41784.64665,11.75203 2.31065,1.77406 251.86267,1.77405 254.17332,0l1e-005-1e-005z" fill="#fff"/>
</svg>
