<?xml version="1.0" encoding="UTF-8" standalone="no"?>
<svg viewBox="0 0 504 504" xmlns="http://www.w3.org/2000/svg">
<path d="m86.08267,448.54767c-4.53562-2.47359-5.03154-5.42406-4.69657-27.94218l.30852-20.74013 2.80576-2.41147c2.53686-2.18037 3.71092-2.41149 12.25-2.41149l9.44424-1e-005 .00374-17.75c.00333-15.83225.21236-18.07411 1.93472-20.74999 1.06204-1.64999 10.49487-12 20.96186-23l19.03087-20.00001 .02605-70.99999 .02604-71-23.53573-17.89813c-12.94465-9.84397-23.96589-18.70188-24.49164-19.68426-.55582-1.03856-.95591-16.48341-.95591-36.90153 0-38.41268.16298-39.59831 5.76206-41.91752 2.04298-.84623 11.58856-1.09992 33.52076-.89086 37.97124.36195 35.06042-1.05604 35.54874,17.31727l.33155,12.47503h16.91845 16.91845v-10.53212c-1e-005-12.22793 1.33212-16.53438 5.67051-18.33141 2.14541-.88865 12.74676-1.1325 40.09627-.92227 45.52759.34997 41.57071-1.27839 42.06477,17.31077l.33155,12.47503h16.91845 16.91843v-11.04966c1e-005-12.41242 1.13738-15.93617 5.76207-17.85178 2.04299-.84623 11.58856-1.09992 33.52076-.89086 30.38783.28966 30.6849.31283 32.94078,2.56902 2.27444,2.27475 2.27665,2.30839 2.56237,38.87063 .23632,30.23994.0402,36.96364-1.1295,38.72328-.77853,1.17116-11.81576,10.00437-24.52722,19.62937l-23.11174,17.5-.0054,71-.00541,70.99999 20.10929,21.48114c11.06009,11.81462 20.50858,22.53142 20.99664,23.8151s.88737,9.91251.88737,19.17516l-1e-005,16.84119 9.97424.34372c15.12334.52114 14.52577-.60374 14.52577,27.3437 1e-005,22.02326-.04274,22.48719-2.2777,24.72222l-2.2777,2.27777-164.7223.21487c-140.93785.18385-165.09944.0092-167.33425-1.2096v1e-005z"/>
<path d="m387.19461,96.5424v-24.5h-19.41843-19.41845l-.33155,12.47504c-.48553,18.26813 2.02427,16.95247-33.04093,17.32042-20.05238.21042-28.98127-.046-31.02092-.89085-4.63262-1.9189-5.76971-5.43772-5.76971-17.85495l-1e-005-11.04966h-25.99998-26v11.94424c-1e-005,11.18227-.15388,12.12322-2.41209,14.75l-2.41207,2.80576-28.27106.29546c-20.14027.21049-29.09476-.04572-31.13508-.89085-4.63262-1.9189-5.76971-5.43772-5.76971-17.85495l1e-005-11.04966h-19.5-19.50001v24.5 24.5h135.00001 134.99998v-24.5z" fill="#fff"/>
<path d="m357.46912,148.7924 12.13702-9.25-58.70575-.25799c-32.28818-.1419-85.09592-.1419-117.35054,0l-58.64477.25799 11.89477,9.19906 11.89478,9.19906 93.31875.05094 93.31877.05094 12.13697-9.25z" fill="#fff"/>
<path d="m338.19461,242.0424v-66h-85.99998-86v66 65.99999h86 85.99998v-65.99999z" fill="#fff"/>
<path d="m366.51721,350.72964c-1.00243-1.27204-6.54759-7.34683-12.32259-13.49955l-10.50001-11.18676-91.57719-.00048-91.57721-.00046-12.75386,13.5-12.75385,13.5h116.65364 116.65364l-1.82257-2.31275z" fill="#fff"/>
<path d="m380.19461,383.04239v-12h-127.99998-128.00001v12 12h128.00001 127.99998v-12z" fill="#fff"/>
<path d="m405.19461,422.54239v-9.5h-152.99998-153.00001v9.5 9.5h153.00001 152.99998v-9.5z" fill="#fff"/>
</svg>
